# AST/ASF file generated using VICON BodyLanguage
# -----------------------------------------------
:version 1.10
:name VICON
:units
  mass 1.0
  length 0.45
  angle deg
:documentation
   .ast/.asf automatically generated from VICON data using
   VICON BodyBuilder and BodyLanguage model FoxedUp or BRILLIANT.MOD
:root
   order TX TY TZ RX RY RZ
   axis XYZ
   position 0 0 0  
   orientation 0 0 0 
:bonedata
  begin
     id 1 
     name lhipjoint
     direction 0.543289 -0.788407 0.288535 
     length 2.57127 
     axis 0 0 0  XYZ
  end
  begin
     id 2 
     name lfemur
     direction 0.34202 -0.939693 0  
     length 8.47298  
     axis 0 0 20  XYZ
    dof rx ry rz
    limits (-160.0 20.0)
           (-70.0 70.0)
           (-60.0 70.0)
  end
  begin
     id 3 
     name ltibia
     direction 0.34202 -0.939693 0   
     length 8.13367   
     axis 0 0 20   XYZ
    dof rx
    limits (-10.0 170.0)
  end
  begin
     id 4 
     name lfoot
     direction 0.114037 -0.313314 0.942778   
     length 2.67113   
     axis -90 7.62852e-016 20   XYZ
    dof rx rz
    limits (-45.0 90.0)
           (-70.0 20.0)
  end
  begin
     id 5 
     name ltoes
     direction 1.536e-011 -4.21847e-011 1   
     length 1.32217   
     axis -90 7.62852e-016 20   XYZ
    dof rx
    limits (-90.0 20.0)
  end
  begin
     id 6 
     name rhipjoint
     direction -0.571293 -0.770752 0.282074   
     length 2.63017  
     axis 0 0 0  XYZ 
  end
  begin
     id 7 
     name rfemur
     direction -0.34202 -0.939693 0   
     length 8.60885   
     axis 0 0 -20   XYZ
    dof rx ry rz
    limits (-160.0 20.0)
           (-70.0 70.0)
           (-70.0 60.0)
  end
  begin
     id 8 
     name rtibia
     direction -0.34202 -0.939693 0   
     length 8.07673   
     axis 0 0 -20   XYZ
    dof rx
    limits (-10.0 170.0)
 end
 begin
     id 9 
     name rfoot
     direction -0.121336 -0.333368 0.934956   
     length 2.81602  
     axis -90 -7.62852e-016 -20   XYZ
    dof rx rz
    limits (-45.0 90.0)
           (-20.0 70.0)
  end
  begin
     id 10 
     name rtoes
     direction -1.53491e-011 -4.21808e-011 1   
     length 1.38905   
     axis -90 -7.62852e-016 -20   XYZ
    dof rx
    limits (-90.0 20.0)
  end
  begin
     id 11 
     name lowerback
     direction 0.0136776 0.999869 -0.00861835   
     length 2.14087   
     axis 0 0 0   XYZ
    dof rx ry rz
    limits (-20.0 45.0)
           (-30.0 30.0)
           (-30.0 30.0)
  end
  begin
     id 12 
     name upperback
     direction -0.00789158 0.999804 0.0181308   
     length 2.14151   
     axis 0 0 0   XYZ
    dof rx ry rz
    limits (-20.0 45.0)
           (-30.0 30.0)
           (-30.0 30.0)
  end
  begin
     id 13 
     name thorax
     direction -0.0135231 0.999666 0.0220247   
     length 2.13644   
     axis 0 0 0   XYZ
    dof rx ry rz
    limits (-20.0 45.0)
           (-30.0 30.0)
           (-30.0 30.0)
  end
  begin
     id 14 
     name lowerneck
     direction -0.0392259 0.997317 0.0618018   
     length 1.65045   
     axis 0 0 0   XYZ
    dof rx ry rz
    limits (-20.0 45.0)
           (-30.0 30.0)
           (-30.0 30.0)
  end
  begin
     id 15 
     name upperneck
     direction 0.0765547 0.994276 -0.0745319   
     length 1.66045   
     axis 0 0 0   XYZ
    dof rx ry rz
    limits (-20.0 45.0)
           (-30.0 30.0)
           (-30.0 30.0)
  end
  begin
     id 16
     name head
     direction 0.0241564 0.999031 -0.036785  
     length 1.66594  
     axis 0 0 0   XYZ
    dof rx ry rz
    limits (-20.0 45.0)
           (-30.0 30.0)
           (-30.0 30.0)
  end
  begin
     id 17 
     name lclavicle
     direction 0.967398 0.249018 0.0461573  
     length 3.75176  
     axis 0 0 0   XYZ
    dof ry rz
    limits (-20.0 10.0)
           (0.0 20.0)
  end
  begin
     id 18 
     name lhumerus
     direction 1 -4.48963e-011 -3.05005e-027   
     length 5.93342   
     axis 180 -30 -90   XYZ
    dof rx ry rz
    limits (-60.0 90.0)
           (-90.0 90.0)
           (-90.0 90.0)
  end
  begin
     id 19
     name lradius
     direction 1 -4.48957e-011 1.07006e-026   
     length 3.94763   
     axis 180 -30 -90   XYZ
    dof rx
    limits (-10.0 170.0)
  end
  begin
     id 20
     name lwrist
     direction 1 -4.48978e-011 1.92422e-026   
     length 1.97382   
     axis -1.18182e-014 90 90   XYZ
    dof ry
    limits (-180.0 0.0)
 end
  begin
     id 21 
     name lhand
     direction 1 -4.48931e-011 3.84844e-026   
     length 0.560187   
     axis -2.45563e-014 90 90   XYZ
    dof rx rz
    limits (-90.0 90.0)
           (-45.0 45.0)
  end
  begin
     id 22 
     name lfingers
     direction 1 -4.48952e-011 7.69687e-026   
     length 0.451637   
     axis -4.91126e-014 90 90   XYZ
    dof rx
    limits (0.0 90.0)
  end
  begin
     id 23
     name lthumb
     direction 0.707107 -6.34901e-011 0.707107   
     length 0.648463   
     axis -90 45 2.85299e-015   XYZ
    dof rx rz
    limits (-45.0 45.0)
           (-45.0 45.0)
  end
  begin
     id 24 
     name rclavicle
     direction -0.965946 0.258716 0.00371831   
     length 3.63667  
     axis 0 0 0   XYZ 
    dof ry rz
    limits (-10.0 20.0)
           (-20.0 0.0)
  end
  begin
     id 25 
     name rhumerus
     direction -1 -4.48966e-011 -1.78361e-028  
     length 6.28647   
     axis 180 30 90   XYZ
    dof rx ry rz
    limits (-90.0 60.0)
           (-90.0 90.0)
           (-90.0 90.0)
  end
  begin
     id 26 
     name rradius
     direction -1 -4.48961e-011 1.05248e-026   
     length 3.81645   
     axis 180 30 90   XYZ
    dof rx
    limits (-10.0 170.0)
  end
  begin
     id 27 
     name rwrist
     direction -1 -4.48979e-011 1.92422e-026   
     length 1.90822   
     axis -1.18182e-014 -90 -90   XYZ
    dof ry
    limits (-180.0 0.0)
  end
  begin
     id 28
     name rhand
     direction -1 -4.48937e-011 3.84844e-026   
     length 0.646185   
     axis -2.45563e-014 -90 -90   XYZ
    dof rx rz
    limits (-90.0 90.0)
           (-45.0 45.0)
  end
  begin
     id 29
     name rfingers
     direction -1 -4.48953e-011 7.69687e-026   
     length 0.520971   
     axis -4.91126e-014 -90 -90   XYZ
    dof rx
    limits (0.0 90.0)
  end
  begin
     id 30
     name rthumb
     direction -0.707107 -6.3494e-011 0.707107   
     length 0.748013   
     axis -90 -45 -2.85299e-015   XYZ
    dof rx rz
    limits (-45.0 45.0)
           (-45.0 45.0)
  end
:hierarchy
  begin
    root lhipjoint rhipjoint lowerback
    lhipjoint lfemur
    lfemur ltibia
    ltibia lfoot
    lfoot ltoes
    rhipjoint rfemur
    rfemur rtibia
    rtibia rfoot
    rfoot rtoes
    lowerback upperback
    upperback thorax
    thorax lowerneck lclavicle rclavicle
    lowerneck upperneck
    upperneck head
    lclavicle lhumerus
    lhumerus lradius
    lradius lwrist
    lwrist lhand lthumb
    lhand lfingers
    rclavicle rhumerus
    rhumerus rradius
    rradius rwrist
    rwrist rhand rthumb
    rhand rfingers
  end

#!OML:ASF H:\HAZMAT1\Patient Classification 1\Patient 3\Session 1\dancer.ASF
:FULLY-SPECIFIED
:DEGREES
15
upperback 0.267339 -1.192560 -4.401400
rfoot 11.736600 -5.372350
lradius 22.858801
lthumb 3.602200 57.435101
rradius 17.083000
lwrist -10.648700
rhand -7.357390 -12.600400
rhumerus -26.750000 9.348160 -50.629200
lowerneck -4.535000 -1.903910 0.084501
lhand -22.835300 27.485701
ltibia 59.908199
head 4.873900 -1.085610 2.620450
rwrist 24.048800
lfingers 7.125020
rtoes 18.337200
lowerback 2.283040 -0.943135 2.551870
rfingers 7.125020
lclavicle -0.000000 -0.000000
upperneck 13.223600 -3.528590 9.115040
rfemur -56.204102 -22.696400 47.844700
thorax -1.154210 -0.597600 -5.957200
rclavicle -0.000000 -0.000000
rtibia 42.988201
lfoot -12.401300 -11.610800
lhumerus -29.595100 33.401299 27.654499
rthumb 18.527100 -41.738201
root -4.723750 18.512199 20.824400 -407.903992 83.055099 -59.305901
ltoes 17.160299
lfemur -29.428200 -7.248050 -24.999500
16
upperback -0.249270 -4.886120 -3.569110
rfoot 25.815001 -23.775900
lradius 21.867800
lthumb 8.604690 53.944901
rradius 27.091600
lwrist -12.780100
rhand -4.219020 -18.614100
rhumerus -37.673000 14.233700 -41.074902
lowerneck -1.951140 -7.018800 -5.900400
lhand -17.653500 24.140200
ltibia 49.277000
head 4.123290 -4.767910 3.926290
rwrist 7.400100
lfingers 7.125020
rtoes 28.639400
lowerback 2.058860 -3.638680 -0.310752
rfingers 7.125020
lclavicle -0.000000 0.000000
upperneck 9.812080 -10.195000 11.265900
rfemur -81.516197 -44.176899 44.066601
thorax -1.694810 -2.444720 -3.314530
rclavicle -0.000000 0.000000
rtibia 77.344398
lfoot -25.719999 4.213130
lhumerus -19.327400 21.970900 59.906502
rthumb 21.543600 -47.435902
root -7.205700 18.702801 22.734600 -351.169006 54.111698 -5.323760
ltoes 13.868100
lfemur -32.865700 4.869790 -23.793699
17
upperback 1.128830 -1.926920 -4.403480
rfoot 3.123920 -42.280102
lradius 31.848400
lthumb 15.928100 52.175900
rradius 31.523199
lwrist 2.094750
rhand 1.626460 -13.322800
rhumerus -57.232399 10.904800 -52.678101
lowerneck -4.119640 -0.555758 0.212255
lhand -10.057700 22.810900
ltibia 64.827301
head 5.500280 -0.411346 1.086770
rwrist 4.770470
lfingers 7.125020
rtoes 23.843399
lowerback -0.930286 -1.448410 3.108910
rfingers 7.125020
lclavicle 0.000000 -0.000000
upperneck 15.931800 -1.379050 3.853140
rfemur -36.927601 -30.977900 28.647200
thorax 1.431330 -0.906313 -6.356700
rclavicle 0.000000 -0.000000
rtibia 47.918201
lfoot 17.460600 14.099400
lhumerus -37.274502 0.759221 57.294998
rthumb 27.147301 -41.390202
root -9.189070 20.530399 26.017401 -358.958008 0.195088 -2.836590
ltoes 23.248600
lfemur -25.472099 -1.866300 -10.016100
18
upperback -0.455223 -0.781399 -2.926730
rfoot -27.986099 -18.601700
lradius 28.039200
lthumb 18.622900 46.233601
rradius 25.673000
lwrist -6.724400
rhand -5.866540 -17.219500
rhumerus -52.068100 -5.021910 -42.204601
lowerneck -4.441450 7.867410 7.171260
lhand -7.257750 17.105000
ltibia 53.591202
head 4.096570 5.138070 -1.135620
rwrist 11.864200
lfingers 7.125020
rtoes 7.795870
lowerback -0.987981 -0.539758 6.366380
rfingers 7.125020
lclavicle -0.000000 -0.000000
upperneck 8.577310 10.051700 -1.241560
rfemur -26.103600 12.832100 28.333000
thorax -0.042755 -0.411814 -6.636600
rclavicle -0.000000 -0.000000
rtibia 48.384102
lfoot -13.294200 8.755820
lhumerus -46.692799 -8.978730 69.003700
rthumb 19.960600 -46.214401
root -11.363700 18.668900 29.094400 -351.553986 -65.183800 0.306123
ltoes 19.358400
lfemur -47.879299 -21.589899 3.645860
19
upperback -0.771244 -5.952640 1.399280
rfoot -26.273800 -8.759000
lradius 28.911501
lthumb 11.981900 46.488602
rradius 28.037901
lwrist -13.424800
rhand -5.328830 -16.812901
rhumerus -31.995001 -1.290340 -61.501598
lowerneck -1.054770 -10.850200 -8.402520
lhand -14.152700 16.851601
ltibia 32.857201
head 3.646980 -7.598090 3.995230
rwrist 7.256530
lfingers 7.125020
rtoes -3.715150
lowerback -0.692849 -4.439010 4.403570
rfingers 7.125020
lclavicle 0.000000 0.000000
upperneck 6.575770 -15.392000 11.164800
rfemur -33.556499 27.749800 5.985880
thorax -0.702923 -3.007040 -1.002700
rclavicle 0.000000 0.000000
rtibia 44.837502
lfoot -19.268101 -1.504410
lhumerus -47.018902 -1.481880 84.947502
rthumb 20.477400 -45.753101
root -14.621500 19.134800 32.602600 -342.604004 -147.210007 -1.312610
ltoes 0.904840
lfemur -37.298500 -31.897800 7.476230
20
upperback -1.506900 -10.136200 2.891550
rfoot -26.274401 -26.103600
lradius 14.887800
lthumb 13.259000 51.020000
rradius 31.760000
lwrist -36.711300
rhand -2.499380 -18.357599
rhumerus -21.701599 8.214390 -63.291801
lowerneck 1.662800 -14.802200 -11.991400
lhand -12.828000 21.461700
ltibia 40.987499
head 4.464450 -10.184000 3.834880
rwrist 4.386570
lfingers 7.125020
rtoes 7.129190
lowerback 2.607440 -7.574190 -2.550100
rfingers 7.125020
lclavicle 0.000000 0.000000
upperneck 8.217290 -20.459400 10.062100
rfemur -34.132099 -3.169520 20.339600
thorax -2.038840 -5.009290 4.741640
rclavicle 0.000000 0.000000
rtibia 58.058800
lfoot -27.833700 13.390700
lhumerus -67.159698 11.758700 42.658401
rthumb 23.194401 -46.980999
root -17.596500 19.246901 34.892300 -343.218994 -219.774994 0.551748
ltoes 1.717080
lfemur -25.650000 -2.124130 -15.103100
21
upperback -1.975000 -8.571580 2.626870
rfoot -17.989500 -32.615898
lradius 16.614500
lthumb 15.119100 51.064999
rradius 22.142599
lwrist -33.585499
rhand -10.521100 -19.639299
rhumerus -24.972401 3.386760 -63.604801
lowerneck 2.688020 -13.514300 -11.906300
lhand -10.897700 21.637199
ltibia 45.074501
head 3.877330 -9.427510 4.074340
rwrist 12.310600
lfingers 7.125020
rtoes -8.417620
lowerback -0.209497 -6.458950 -0.402032
rfingers 7.125020
lclavicle 0.000000 -0.000000
upperneck 7.481320 -18.823601 10.002400
rfemur -22.261600 -4.766580 15.794400
thorax -1.452420 -4.257630 2.975100
rclavicle 0.000000 -0.000000
rtibia 39.514198
lfoot -24.954100 25.958300
lhumerus -74.828499 6.045730 7.306250
rthumb 15.481800 -49.039398
root -18.311701 19.435900 37.322701 -260.062012 -266.554993 87.421303
ltoes -0.125441
lfemur -17.581301 -2.767500 -10.102900
22
upperback -1.741550 -5.423790 -0.232144
rfoot -19.666901 -23.982700
lradius 20.388800
lthumb 11.863500 50.658600
rradius 25.837000
lwrist -20.332600
rhand -3.559270 -16.374201
rhumerus -38.612202 8.023870 -73.111198
lowerneck -0.089915 -8.894020 -8.017680
lhand -14.275500 21.014700
ltibia 42.648701
head 3.333880 -6.088150 3.070680
rwrist 14.594200
lfingers 7.125020
rtoes 9.041470
lowerback 1.047010 -4.065790 0.205361
rfingers 7.125020
lclavicle -0.000000 0.000000
upperneck 7.943510 -12.258900 7.415800
rfemur -24.066299 4.740800 22.329300
thorax -2.413430 -2.712860 -0.180887
rclavicle -0.000000 0.000000
rtibia 36.103600
lfoot -22.009001 9.232230
lhumerus -58.970600 11.494000 24.015699
rthumb 22.177099 -45.122101
root -18.525299 19.644899 39.749100 -173.095993 -227.419998 177.613998
ltoes 1.692510
lfemur -27.520300 -17.062799 -13.131600
23
upperback -1.707210 -4.775310 -1.608620
rfoot -21.083500 -16.389400
lradius 32.168800
lthumb 10.477000 53.005199
rradius 26.020599
lwrist -5.455900
rhand -19.428600 -23.231600
rhumerus -48.328602 -4.356820 -64.184303
lowerneck -3.138620 -2.453790 -2.759250
lhand -15.713000 23.286301
ltibia 37.138901
head 2.458000 -1.621400 1.051160
rwrist 13.801300
lfingers 7.125020
rtoes 12.671600
lowerback 0.054068 -3.584180 3.425260
rfingers 7.125020
lclavicle 0.000000 0.000000
upperneck 5.776520 -3.259130 2.126530
rfemur -20.525499 17.236900 22.666901
thorax -2.204800 -2.462550 -3.458170
rclavicle 0.000000 0.000000
rtibia 35.187099
lfoot -18.741301 -4.853130
lhumerus -37.998699 7.176710 37.162701
rthumb 6.891430 -53.099400
root -18.533899 19.572800 41.214401 -172.522995 -195.783005 180.973999
ltoes 2.233720
lfemur -30.327499 -27.077400 -9.985540
24
upperback -2.772160 -5.770180 -0.384601
rfoot -22.659300 -12.070900
lradius 56.012699
lthumb 11.074700 53.081501
rradius 21.584700
lwrist 0.807473
rhand -16.539101 -24.758600
rhumerus -56.858898 -3.836100 -62.554798
lowerneck -2.764760 2.641470 0.630039
lhand -15.093400 23.393700
ltibia 37.079399
head 1.560300 1.752210 -1.125690
rwrist 17.589399
lfingers 7.125020
rtoes 13.337900
lowerback -1.283400 -4.321120 6.648390
rfingers 7.125020
lclavicle 0.000000 0.000000
upperneck 3.247640 3.630750 -3.521730
rfemur -21.100201 18.243900 21.590200
thorax -2.851900 -3.050740 -3.996490
rclavicle 0.000000 0.000000
rtibia 36.556198
lfoot -18.538300 4.331040
lhumerus -22.788900 -1.695670 52.873402
rthumb 9.680090 -54.516201
root -18.370300 19.574699 42.039299 -171.123001 -179.852997 182.380005
ltoes 11.075900
lfemur -24.737400 -20.955799 -16.344801
25
upperback -3.309560 -7.681500 1.320430
rfoot -22.424999 -11.754100
lradius 51.368698
lthumb 11.825200 51.295300
rradius 19.850100
lwrist -0.769155
rhand -11.552700 -22.158199
rhumerus -63.102501 -9.387610 -64.574799
lowerneck -1.579300 5.992800 3.130570
lhand -14.315200 21.649200
ltibia 34.629299
head 0.429949 3.956730 -3.202560
rwrist 18.772499
lfingers 7.125020
rtoes 15.277500
lowerback -2.733150 -5.687950 9.333340
rfingers 7.125020
lclavicle 0.000000 0.000000
upperneck -1.132780 7.951340 -8.627550
rfemur -25.648100 22.935200 14.836200
thorax -2.971530 -4.060890 -3.729090
rclavicle 0.000000 0.000000
rtibia 37.728298
lfoot -15.422600 3.483970
lhumerus 3.773210 -11.007500 67.836899
rthumb 14.488000 -51.632401
root -18.048901 19.721701 42.393299 -167.373001 -175.690002 185.311996
ltoes 14.627800
lfemur -26.623600 -17.248301 -21.054300
26
upperback -3.087920 -8.117030 1.568500
rfoot -23.116501 -8.557660
lradius 48.056000
lthumb 12.114300 49.762199
rradius 20.598301
lwrist -3.125280
rhand -14.882300 -22.988199
rhumerus -64.480202 -11.896000 -63.474499
lowerneck -0.919058 8.406150 6.885460
lhand -14.015400 20.132900
ltibia 34.354500
head 0.695731 5.573360 -4.272450
rwrist 18.272100
lfingers 7.125020
rtoes 14.494400
lowerback -3.955230 -5.857700 11.608100
rfingers 7.125020
lclavicle -0.000000 0.000000
upperneck -1.595110 11.164600 -9.916120
rfemur -27.756500 23.711599 13.094800
thorax -2.416190 -4.296730 -4.823070
rclavicle -0.000000 0.000000
rtibia 37.974201
lfoot -18.109301 8.221640
lhumerus 6.540930 -26.312901 84.384499
rthumb 11.278200 -52.665001
root -17.686001 19.702200 42.690300 -165.893005 -169.175995 184.694000
ltoes 11.748100
lfemur -26.700100 -15.967100 -22.154400
27
upperback -2.553380 -8.670870 1.138850
rfoot -24.418600 -6.754330
lradius 52.590500
lthumb 11.655700 41.699699
rradius 23.180901
lwrist -3.785440
rhand -14.082800 -21.062599
rhumerus -64.287003 -12.955400 -67.443703
lowerneck -0.884863 9.358180 8.419390
lhand -14.490900 12.043900
ltibia 34.951599
head 1.191260 6.219200 -3.814610
rwrist 12.362900
lfingers 7.125020
rtoes 14.041400
lowerback -4.418310 -6.180420 12.061900
rfingers 7.125020
lclavicle -0.000000 0.000000
upperneck -0.310605 12.472900 -8.037650
rfemur -26.482500 25.075800 15.801900
thorax -1.826200 -4.537590 -5.586710
rclavicle -0.000000 0.000000
rtibia 37.520100
lfoot -22.983999 11.971200
lhumerus -14.942300 -51.606201 99.703796
rthumb 12.049300 -50.695702
root -17.445999 19.544300 42.813801 -166.397995 -165.983994 181.537994
ltoes 15.489600
lfemur -24.956200 -16.920900 -20.452499
28
upperback -2.668430 -8.634480 1.085320
rfoot -24.665400 -8.282860
lradius 42.332199
lthumb 18.318001 41.925999
rradius 23.967100
lwrist -7.175050
rhand -14.198800 -19.201000
rhumerus -63.032902 -13.888900 -69.233704
lowerneck -2.557160 8.380290 8.068870
lhand -7.574760 12.768500
ltibia 36.104198
head 1.547070 5.485560 -3.101670
rwrist 10.929000
lfingers 7.125020
rtoes 15.318300
lowerback -4.179160 -6.220430 10.459900
rfingers 7.125020
lclavicle 0.000000 0.000000
upperneck 0.727779 11.041600 -6.220920
rfemur -24.771900 25.013300 17.628700
thorax -1.833180 -4.498720 -4.758630
rclavicle 0.000000 0.000000
rtibia 36.554699
lfoot -23.056499 10.001800
lhumerus -36.984100 -44.361900 111.848000
rthumb 11.937400 -48.840599
root -17.178900 19.471399 42.749001 -167.125000 -168.158005 179.832001
ltoes 14.356200
lfemur -24.834400 -16.616699 -19.455299
